{
  "accessors": [
    {
      "bufferView": 2,
      "componentType": 5126,
      "count": 14644,
      "max": [
        0.038408681750297546,
        0.06638157367706299,
        -0.0012481121812015772
      ],
      "min": [
        -0.030798498541116714,
        -0.05015692487359047,
        -0.050028227269649506
      ],
      "type": "VEC3"
    },
    {
      "bufferView": 2,
      "byteOffset": 175728,
      "componentType": 5126,
      "count": 14644,
      "max": [
        0.9999473690986633,
        0.9996217489242554,
        0.9997835755348206
      ],
      "min": [
        -0.9999306797981262,
        -0.9999822378158569,
        -0.9999932050704956
      ],
      "type": "VEC3"
    },
    {
      "bufferView": 3,
      "componentType": 5126,
      "count": 14644,
      "max": [
        0.9999985098838806,
        1.0,
        0.9999990463256836,
        1.0
      ],
      "min": [
        -1.0,
        -0.9999998211860657,
        -0.9999998211860657,
        1.0
      ],
      "type": "VEC4"
    },
    {
      "bufferView": 1,
      "componentType": 5126,
      "count": 14644,
      "max": [
        0.9958020448684692,
        0.9999635219573975
      ],
      "min": [
        0.0,
        0.0
      ],
      "type": "VEC2"
    },
    {
      "bufferView": 1,
      "byteOffset": 117152,
      "componentType": 5126,
      "count": 14644,
      "max": [
        0.9958020448684692,
        0.9999635219573975
      ],
      "min": [
        0.0,
        0.0
      ],
      "type": "VEC2"
    },
    {
      "bufferView": 1,
      "byteOffset": 234304,
      "componentType": 5126,
      "count": 14644,
      "max": [
        0.35960447788238525,
        0.7285298109054565
      ],
      "min": [
        0.0,
        0.0
      ],
      "type": "VEC2"
    },
    {
      "bufferView": 0,
      "componentType": 5125,
      "count": 74289,
      "type": "SCALAR"
    }
  ],
  "asset": {
    "extras": {
      "author": "naka2012 (https://sketchfab.com/naka2012)",
      "license": "CC-BY-4.0 (http://creativecommons.org/licenses/by/4.0/)",
      "source": "https://sketchfab.com/3d-models/layer-cake-4c1075ad19284695ac1a31dbc510c851",
      "title": "Layer cake"
    },
    "generator": "Sketchfab-16.14.0",
    "version": "2.0"
  },
  "bufferViews": [
    {
      "buffer": 0,
      "byteLength": 297156,
      "name": "floatBufferViews",
      "target": 34963
    },
    {
      "buffer": 0,
      "byteLength": 351456,
      "byteOffset": 297156,
      "byteStride": 8,
      "name": "floatBufferViews",
      "target": 34962
    },
    {
      "buffer": 0,
      "byteLength": 351456,
      "byteOffset": 648612,
      "byteStride": 12,
      "name": "floatBufferViews",
      "target": 34962
    },
    {
      "buffer": 0,
      "byteLength": 234304,
      "byteOffset": 1000068,
      "byteStride": 16,
      "name": "floatBufferViews",
      "target": 34962
    }
  ],
  "buffers": [
    {
      "byteLength": 1234372,
      "uri": "scene.bin"
    }
  ],
  "images": [
    {
      "uri": "textures/Texture_baseColor.png"
    },
    {
      "uri": "textures/Texture_normal.png"
    }
  ],
  "materials": [
    {
      "doubleSided": true,
      "name": "Texture",
      "normalTexture": {
        "index": 1,
        "texCoord": 1
      },
      "pbrMetallicRoughness": {
        "baseColorTexture": {
          "index": 0
        },
        "metallicFactor": 0.0,
        "roughnessFactor": 0.9
      }
    }
  ],
  "meshes": [
    {
      "name": "Object_0",
      "primitives": [
        {
          "attributes": {
            "NORMAL": 1,
            "POSITION": 0,
            "TANGENT": 2,
            "TEXCOORD_0": 3,
            "TEXCOORD_1": 4,
            "TEXCOORD_2": 5
          },
          "indices": 6,
          "material": 0,
          "mode": 4
        }
      ]
    }
  ],
  "nodes": [
    {
      "children": [
        1
      ],
      "matrix": [
        1.0,
        0.0,
        0.0,
        0.0,
        0.0,
        2.220446049250313e-16,
        -1.0,
        0.0,
        0.0,
        1.0,
        2.220446049250313e-16,
        0.0,
        0.0,
        0.0,
        0.0,
        1.0
      ],
      "name": "Sketchfab_model"
    },
    {
      "children": [
        2
      ],
      "name": "root"
    },
    {
      "children": [
        3
      ],
      "matrix": [
        1.0,
        0.0,
        0.0,
        0.0,
        0.0,
        2.220446049250313e-16,
        1.0,
        0.0,
        0.0,
        -1.0,
        2.220446049250313e-16,
        0.0,
        0.0,
        0.0,
        0.0,
        1.0
      ],
      "name": "GLTF_SceneRootNode"
    },
    {
      "children": [
        4
      ],
      "matrix": [
        1.0,
        0.0,
        0.0,
        0.0,
        0.0,
        8.429369480200677e-08,
        0.9999999999999966,
        0.0,
        0.0,
        -0.9999999999999966,
        8.429369480200677e-08,
        0.0,
        0.0,
        0.0,
        0.0,
        1.0
      ],
      "name": "ObjectCapture_5"
    },
    {
      "children": [
        5
      ],
      "name": "Geometry_3"
    },
    {
      "children": [
        6
      ],
      "matrix": [
        0.0999307990011219,
        0.9947877403461225,
        -0.02027774810113422,
        0.0,
        -0.9949910020515118,
        0.09985652429433756,
        -0.004645470092778305,
        0.0,
        -0.0025963912505450534,
        0.020640402440602827,
        0.9997835928537555,
        0.0,
        0.0,
        0.0,
        0.0,
        1.0
      ],
      "name": "Mesh_2"
    },
    {
      "mesh": 0,
      "name": "Object_6"
    }
  ],
  "samplers": [
    {
      "magFilter": 9729,
      "minFilter": 9987,
      "wrapS": 10497,
      "wrapT": 10497
    }
  ],
  "scene": 0,
  "scenes": [
    {
      "name": "Sketchfab_Scene",
      "nodes": [
        0
      ]
    }
  ],
  "textures": [
    {
      "sampler": 0,
      "source": 0
    },
    {
      "sampler": 0,
      "source": 1
    }
  ]
}
